<?xml version="1.0" encoding="iso-8859-1"?>
<!-- Generator: Adobe Illustrator 19.0.0, SVG Export Plug-In . SVG Version: 6.00 Build 0)  -->
<svg version="1.1" id="Capa_1" xmlns="http://www.w3.org/2000/svg" xmlns:xlink="http://www.w3.org/1999/xlink" x="0px" y="0px"
	 viewBox="0 0 512 512" style="enable-background:new 0 0 512 512;" xml:space="preserve">
<g>
	<g>
		<path d="M468.112,161.564c-29.15-50.346-71.559-92.01-122.644-120.485C297.248,14.201,242.747,0,187.818,0
			c-0.095,0-0.198,0-0.292,0c-4.021,0.004-7.279,3.264-7.279,7.286v45.631v45.631v38.41c-33.787,1.311-67.221,11.804-96.625,31.342
			c-0.023,0.015-0.045,0.029-0.066,0.045c-1.16,0.772-2.309,1.58-3.446,2.42c-22.602,15.748-42.061,36.721-56.352,62.358
			C-17.329,306.831-3.21,396.6,52.469,454.481c0.075,0.085,0.135,0.179,0.214,0.261c0.729,0.754,1.477,1.495,2.221,2.238
			c0.012,0.012,0.023,0.023,0.035,0.035c0.378,0.378,0.747,0.763,1.129,1.138c0.027,0.026,0.095,0.092,0.122,0.118
			c0.547,0.536,1.113,1.064,1.669,1.595c0.221,0.211,0.441,0.423,0.663,0.634c0.351,0.332,0.691,0.669,1.046,1l0.196,0.182
			c0.427,0.397,0.872,0.789,1.304,1.183c0.363,0.332,0.727,0.663,1.093,0.992c0.337,0.303,0.661,0.607,1.003,0.91l0.252,0.221
			c0.318,0.281,0.644,0.551,0.965,0.829c0.537,0.468,1.078,0.932,1.621,1.394c0.28,0.237,0.554,0.483,0.835,0.718l0.313,0.264
			c0.239,0.2,0.489,0.396,0.73,0.595c0.662,0.548,1.33,1.091,2.001,1.631c0.266,0.214,0.522,0.43,0.791,0.644l0.294,0.234
			c0.176,0.139,0.359,0.274,0.535,0.413c0.797,0.628,1.604,1.247,2.414,1.863c0.231,0.176,0.454,0.355,0.687,0.53l0.26,0.196
			c0.19,0.142,0.385,0.284,0.576,0.426c0.417,0.311,0.835,0.621,1.256,0.929c0.663,0.485,1.337,0.971,2.03,1.464l0.121,0.087
			c0.08,0.057,0.163,0.111,0.243,0.168c1.1,0.779,2.213,1.545,3.335,2.303c0.16,0.108,0.316,0.221,0.476,0.329
			c0.027,0.018,0.056,0.034,0.083,0.052c4.272,2.865,8.688,5.586,13.26,8.134C124.544,503.966,155.721,512,187.256,512
			c17.207,0,34.523-2.393,51.531-7.227c43.985-12.499,81.115-39.961,105.801-77.937c0.115-0.176,0.225-0.354,0.339-0.53
			c0.647-1.003,1.291-2.008,1.921-3.026c0.324-0.523,0.638-1.053,0.958-1.58c0.43-0.709,0.864-1.414,1.285-2.131
			c0.753-1.278,1.492-2.566,2.216-3.865c0.703-1.261,1.386-2.529,2.059-3.801c0.201-0.381,0.397-0.765,0.596-1.147
			c0.475-0.914,0.944-1.83,1.404-2.75c0.208-0.417,0.415-0.835,0.62-1.254c0.461-0.94,0.913-1.884,1.358-2.829
			c0.167-0.356,0.337-0.712,0.502-1.069c0.568-1.227,1.124-2.459,1.664-3.695c0.028-0.065,0.059-0.13,0.087-0.195
			c0.606-1.392,1.194-2.79,1.766-4.192c0.027-0.067,0.053-0.135,0.081-0.202c0.519-1.279,1.021-2.562,1.511-3.849
			c0.095-0.249,0.187-0.498,0.28-0.747c0.429-1.141,0.845-2.285,1.251-3.432c0.091-0.257,0.182-0.513,0.272-0.77
			c0.434-1.244,0.854-2.491,1.261-3.741c0.041-0.125,0.083-0.249,0.123-0.374c0.901-2.793,1.735-5.603,2.501-8.428
			c0.084-0.311,0.164-0.622,0.247-0.933c0.275-1.036,0.542-2.073,0.799-3.112c0.115-0.466,0.228-0.932,0.34-1.399
			c0.21-0.88,0.413-1.763,0.61-2.646c0.122-0.548,0.246-1.095,0.364-1.643c0.165-0.771,0.32-1.544,0.475-2.317
			c0.587-2.922,1.103-5.855,1.548-8.798c0.026-0.172,0.054-0.344,0.079-0.516c0.172-1.16,0.33-2.321,0.48-3.484
			c0.008-0.06,0.016-0.12,0.023-0.18c0.776-6.059,1.251-12.155,1.424-18.27h38.337h45.646h45.632c1.941,0,3.801-0.774,5.168-2.151
			c1.368-1.377,2.13-3.242,2.117-5.183C511.563,266.126,496.411,210.442,468.112,161.564z M61.826,430.351
			c-1.849,2.51-3.525,4.908-5.062,7.229C10.616,384.145,0.165,305.375,36.485,240.218c1.916-3.438,3.938-6.781,6.049-10.035
			c-4.254,35.183,19.43,68.592,30.512,82.039c0.614,0.746,0.56,1.835-0.124,2.48c-20.465,19.311-24.516,41.656-11.113,61.304
			C81.068,404.241,76.993,409.771,61.826,430.351z M242.854,488.258c-2.654,0.893-5.338,1.728-8.051,2.498
			c-42.021,11.941-86.061,7.721-124.847-11.797c12.891-1.59,25.498-4.446,33.006-12.151c3.876-3.977,15.94-6.076,26.585-7.928
			c19.914-3.464,42.483-7.391,49.453-25.616c3.26-8.523-3.319-21.515-7.531-28.5c-6.986-11.587-16.34-21.378-25.663-26.863
			c-4.143-2.437-7.705-13.528-9.619-19.488c-1.23-3.831-5.332-5.941-9.165-4.708c-3.831,1.23-5.939,5.334-4.708,9.165
			c3.781,11.771,7.858,22.739,16.105,27.59c16.369,9.63,27.474,32.599,26.895,37.796c-4.167,10.335-22.274,13.486-38.263,16.267
			c-14.067,2.447-27.355,4.759-34.522,12.114c-6.173,6.334-22.867,7.853-36.281,9.073c-2.562,0.233-5.023,0.457-7.403,0.706
			c-0.415-0.288-0.834-0.583-1.253-0.88c-0.329-0.233-0.654-0.47-0.981-0.704c-0.894-0.641-1.78-1.286-2.652-1.937
			c-0.426-0.318-0.848-0.64-1.27-0.962c-0.718-0.546-1.43-1.094-2.132-1.646c-0.524-0.412-1.044-0.829-1.563-1.246
			c-0.595-0.478-1.185-0.959-1.77-1.443c-0.625-0.518-1.247-1.039-1.863-1.564c-0.446-0.379-0.891-0.762-1.333-1.146
			c-0.746-0.648-1.487-1.3-2.219-1.96c-0.269-0.242-0.537-0.486-0.805-0.73c-1.335-1.217-2.643-2.458-3.934-3.711
			c1.853-2.975,4.001-6.115,6.49-9.494c8.935-12.123,14.85-20.884,15.645-31.779c0.79-10.855-3.657-22.277-15.353-39.422
			c-11.638-17.062-1.488-32.527,9.076-42.496c6.24-5.889,6.841-15.704,1.368-22.345c-10.593-12.853-34.329-46.184-25.985-78.016
			c3.878-14.794,16.014-31.646,30.144-42.211c29.148-20.314,63.96-31.212,99.374-31.212c10.128,0,20.303,0.909,30.409,2.723
			c0.631,0.114,1.265,0.215,1.894,0.337c0.586,0.112,1.17,0.244,1.756,0.362c1.277,0.26,2.554,0.517,3.825,0.805
			c0.049,0.011,0.098,0.024,0.148,0.035c8.798,2.005,17.443,4.7,25.844,8.058c0.307,0.123,0.612,0.254,0.919,0.379
			c1.348,0.548,2.691,1.107,4.026,1.689c0.747,0.327,1.489,0.672,2.233,1.01c0.908,0.411,1.819,0.817,2.721,1.244
			c1.476,0.701,2.944,1.428,4.406,2.173c0.174,0.089,0.35,0.171,0.524,0.26c-2.469,7.099-9.18,15.465-20.52,21.216
			c-1.964,0.25-7.699-2.233-10.802-3.577c-6.215-2.691-11.584-5.014-16.616-3.584c-5.946,1.69-7.488,6.788-8.23,9.239
			c-0.177,0.588-0.446,1.476-0.57,1.662c-0.009,0.008-1.024,0.731-4.747,0.749c-17.188,0.082-29.482,7.963-36.086,12.197
			l-0.565,0.362c-0.838,0.037-2.773-0.422-4.096-0.729c-5.424-1.258-14.499-3.363-22.377,4.556c-2.079,2.09-4.082,4.348-6.018,6.532
			c-1.965,2.215-5.079,5.728-7.546,7.853c0.007-0.022,0.012-0.044,0.019-0.066c1.599-5.567,4.016-13.981-1.36-22.069
			c-3.219-4.844-7.3-7.758-12.129-8.66c-8.078-1.51-15.522,3.137-21.862,7.612c-10.18,7.187-9.285,16.642-8.63,23.545
			c0.642,6.774,1.197,12.625-5.248,20.305c-3.777,4.5-3.557,11.331,0.673,20.884c3.754,8.478,10.287,18.361,17.478,26.439
			c9.071,10.191,17.271,15.498,24.37,15.774c13.129,0.511,22.205,7.07,29.43,21.268c1.825,3.586,6.212,5.015,9.798,3.189
			c3.586-1.825,5.014-6.211,3.189-9.797c-9.639-18.942-23.329-28.499-41.85-29.22c-1.336-0.052-6.615-2.285-14.9-11.867
			c-10.559-12.212-16.016-24.396-16.293-28.197c9.582-11.978,8.589-22.454,7.86-30.153c-0.64-6.748-0.511-8.121,2.526-10.266
			c2.416-1.705,8.07-5.704,10.782-5.193c1.013,0.189,2.011,1.411,2.671,2.402c1.535,2.31,0.832,5.312-0.509,9.981
			c-1.337,4.652-4.117,14.333,4.976,18.949c10.957,5.563,20.107-4.756,27.458-13.046c1.801-2.03,3.662-4.129,5.445-5.923
			c1.905-1.912,3.484-1.861,8.755-0.638c4.368,1.013,9.804,2.276,14.971-1.018l0.848-0.543c6.107-3.915,15.335-9.831,28.29-9.892
			c13.853-0.065,17.4-7.309,18.805-11.514c1.681,0.595,3.861,1.54,5.498,2.249c7.439,3.222,15.872,6.876,22.955,3.317
			c12.842-6.453,22.481-16.269,26.994-27.004c11.702,7.341,22.362,15.986,31.825,25.696c4.701,28.338,4.599,40.427,3.717,43.388
			c-5.314,6.514-6.392,15.714-6.496,21.363c-8.11,4.791-26.029,16.735-34.025,32.835c-4.724,9.515-7.385,25.168-7.117,41.873
			c0.166,10.337,1.583,28.577,9.211,34.604c5.257,4.152,13.234,3.986,21.671,3.811c3.779-0.079,15.263-0.316,15.946,1.818
			C319.159,399.117,290.561,441.203,242.854,488.258z M359.17,346.167c-0.025,0.197-0.051,0.394-0.076,0.591
			c-0.123,0.95-0.254,1.899-0.393,2.846c-0.052,0.35-0.108,0.699-0.161,1.049c-0.13,0.849-0.261,1.697-0.403,2.544
			c-0.195,1.153-0.4,2.304-0.619,3.452c-0.081,0.428-0.172,0.855-0.257,1.282c-0.174,0.876-0.35,1.752-0.538,2.625
			c-0.089,0.415-0.183,0.829-0.275,1.243c-0.203,0.914-0.413,1.826-0.631,2.737c-0.085,0.354-0.171,0.708-0.258,1.062
			c-0.259,1.05-0.528,2.098-0.807,3.144c-0.055,0.209-0.109,0.418-0.165,0.626c-0.716,2.643-1.495,5.273-2.34,7.887
			c-0.017,0.052-0.034,0.103-0.051,0.154c-0.395,1.217-0.805,2.43-1.227,3.641c-0.07,0.201-0.141,0.401-0.212,0.602
			c-0.387,1.097-0.786,2.191-1.196,3.281c-0.075,0.2-0.149,0.4-0.225,0.6c-0.464,1.221-0.941,2.439-1.434,3.653
			c-0.013,0.033-0.026,0.066-0.039,0.099c-0.53,1.303-1.077,2.601-1.64,3.894c-0.017,0.04-0.035,0.079-0.053,0.118
			c-0.506,1.159-1.028,2.313-1.56,3.464c-0.151,0.325-0.305,0.649-0.458,0.974c-0.411,0.874-0.829,1.746-1.256,2.616
			c-0.19,0.388-0.381,0.775-0.574,1.162c-0.419,0.839-0.848,1.675-1.281,2.51c-0.189,0.363-0.374,0.728-0.566,1.09
			c-0.603,1.141-1.216,2.278-1.846,3.409c-0.016,0.029-0.031,0.058-0.047,0.087c-0.825,1.479-1.674,2.941-2.539,4.391
			c-0.204,0.342-0.413,0.679-0.618,1.02c-0.728,1.202-1.467,2.397-2.223,3.579c-0.147,0.23-0.294,0.46-0.441,0.689
			c-13.746,21.277-31.897,39.153-53.132,52.501c7.779-8.702,15.894-18.336,23.279-28.175c21.454-28.577,29.654-49.432,25.069-63.758
			c-3.438-10.739-15.09-12.01-25.298-12.01c-1.661,0-3.284,0.034-4.827,0.065c-3.883,0.081-10.284,0.213-12.233-0.645
			c-1.26-1.895-3.728-10.166-3.793-24.901c-0.06-13.689,2.092-26.6,5.613-33.692c8.131-16.372,31.472-28.511,31.701-28.628
			c2.662-1.361,4.222-4.21,3.935-7.186c-0.342-3.545,0.005-12.073,3.257-15.811c2.887-3.318,4.517-8.976,3.089-25.803
			c-0.141-1.674-0.313-3.435-0.511-5.273c8.994,12.803,16.26,26.785,21.533,41.575c0.116,0.325,0.221,0.653,0.335,0.978
			c0.484,1.383,0.956,2.771,1.406,4.167c0.164,0.509,0.316,1.022,0.475,1.533c0.386,1.239,0.765,2.48,1.124,3.729
			c0.155,0.538,0.3,1.08,0.449,1.62c0.345,1.249,0.682,2.502,1,3.76c0.129,0.511,0.252,1.024,0.377,1.536
			c0.319,1.313,0.625,2.63,0.913,3.952c0.1,0.46,0.198,0.921,0.295,1.381c0.292,1.393,0.567,2.791,0.825,4.194
			c0.075,0.406,0.15,0.811,0.222,1.218c0.257,1.458,0.493,2.921,0.713,4.388c0.056,0.376,0.116,0.751,0.17,1.128
			c1.064,7.43,1.655,14.973,1.737,22.588c0.001,0.104,0.013,0.205,0.019,0.308C360.576,330.796,360.133,338.521,359.17,346.167z
			 M466.142,315.358c-1.539-45.992-14.457-91.137-37.562-131c-25.046-43.214-61.467-78.978-105.327-103.426
			c-11.947-6.659-24.442-12.477-37.139-17.292c-3.757-1.426-7.969,0.466-9.396,4.229s0.467,7.969,4.229,9.396
			c12.036,4.565,23.883,10.081,35.212,16.395c41.568,23.171,76.083,57.061,99.814,98.006c21.82,37.648,34.065,80.264,35.598,123.693
			h-31.096c-0.715-17.965-3.503-35.829-8.316-53.206c-1.074-3.878-5.085-6.152-8.966-5.077c-3.878,1.074-6.151,5.089-5.076,8.966
			c4.462,16.11,7.071,32.666,7.777,49.316h-31.021c-0.651-12.95-2.657-25.917-6.04-38.728c-0.023-0.088-0.048-0.176-0.072-0.264
			c-0.284-1.069-0.566-2.139-0.869-3.206c-0.158-0.557-0.331-1.107-0.494-1.662c-0.073-0.249-0.148-0.497-0.222-0.746
			c-0.475-1.592-0.969-3.174-1.483-4.747c-0.036-0.109-0.07-0.218-0.106-0.326c-13.411-40.789-39.935-75.178-75.842-98.454
			c-0.137-0.089-0.276-0.176-0.414-0.265c-1.455-0.938-2.926-1.857-4.411-2.758c-0.364-0.221-0.726-0.443-1.092-0.662
			c-1.652-0.987-3.316-1.96-5.005-2.901c-0.161-0.09-0.324-0.173-0.485-0.262c-0.001-0.001-0.002-0.002-0.004-0.002
			c-0.014-0.008-0.029-0.015-0.043-0.023c-1.367-0.756-2.738-1.495-4.116-2.213c-0.359-0.187-0.721-0.365-1.081-0.55
			c-0.027-0.014-0.053-0.027-0.08-0.04c-0.34-0.174-0.68-0.347-1.021-0.519c-0.87-0.44-1.741-0.876-2.615-1.301
			c-0.353-0.171-0.707-0.337-1.061-0.506c-0.409-0.195-0.817-0.393-1.226-0.585c-0.197-0.092-0.392-0.189-0.589-0.281
			c-0.708-0.329-1.419-0.646-2.129-0.966c-0.252-0.113-0.505-0.226-0.758-0.338c-0.854-0.38-1.707-0.761-2.565-1.127
			c-0.42-0.18-0.843-0.349-1.264-0.526c-0.244-0.102-0.487-0.203-0.731-0.304c-0.061-0.025-0.122-0.051-0.183-0.076
			c-1.027-0.423-2.056-0.838-3.087-1.242c-0.674-0.265-1.348-0.527-2.024-0.783c-1.103-0.417-2.209-0.818-3.316-1.213
			c-1.665-0.596-3.336-1.163-5.012-1.71c-0.525-0.171-1.048-0.35-1.573-0.515c-1.322-0.419-2.649-0.814-3.977-1.203
			c-0.21-0.061-0.42-0.122-0.63-0.183c-14.567-4.205-29.481-6.598-44.435-7.187v-31.031c34.588,1.14,68.711,10.608,99.125,27.562
			c41.556,23.164,73.741,58.31,93.074,101.638c1.638,3.675,5.949,5.322,9.621,3.685c3.675-1.64,5.325-5.948,3.686-9.622
			c-20.626-46.225-54.958-83.719-99.287-108.427c-32.58-18.161-69.153-28.267-106.22-29.411V60.297
			c18.366,0.492,36.66,2.907,54.478,7.197c3.919,0.94,7.846-1.466,8.789-5.378c0.941-3.912-1.467-7.847-5.378-8.788
			c-18.937-4.56-38.359-7.133-57.89-7.61V14.652c50.069,1.151,99.552,14.627,143.555,39.155
			c48.792,27.197,89.293,66.984,117.127,115.058c25.807,44.574,40.169,95.073,41.723,146.493H466.142z"/>
	</g>
</g>
<g>
</g>
<g>
</g>
<g>
</g>
<g>
</g>
<g>
</g>
<g>
</g>
<g>
</g>
<g>
</g>
<g>
</g>
<g>
</g>
<g>
</g>
<g>
</g>
<g>
</g>
<g>
</g>
<g>
</g>
</svg>
