<svg xmlns="http://www.w3.org/2000/svg" xmlns:xlink="http://www.w3.org/1999/xlink" version="1.1" id="Capa_1" x="0px" y="0px" viewBox="0 0 349.52 349.52" style="enable-background:new 0 0 349.52 349.52;" xml:space="preserve">
<g>
	<g>
		<path d="M330.2,222.12l0.04-0.04h-2.72V42.6h2.72c6.086-0.367,10.723-5.598,10.356-11.684c-0.336-5.574-4.782-10.02-10.356-10.356    H178.76V4c0-2.209-1.791-4-4-4c-2.209,0-4,1.791-4,4v16.56H19.28c-6.086,0.367-10.723,5.598-10.356,11.684    C9.26,37.818,13.706,42.264,19.28,42.6H22v179.48h-2.72c-6.086,0.367-10.723,5.598-10.356,11.684    c0.336,5.574,4.782,10.02,10.356,10.356H167.6l-56.52,99.04c-1.105,1.999-0.379,4.515,1.62,5.62s4.515,0.379,5.62-1.62    l21.16-37.08l31.28,0.52v34.76c0,2.297,1.862,4.16,4.16,4.16c2.297,0,4.16-1.862,4.16-4.16V310.6h31.28l20.84,36.52    c1.105,1.999,3.621,2.725,5.62,1.62c1.999-1.105,2.725-3.621,1.62-5.62l-56.52-98.96H330.2    c6.086-0.367,10.723-5.598,10.356-11.684C340.22,226.902,335.774,222.456,330.2,222.12z M19.28,34.24    c-1.462-0.042-2.638-1.218-2.68-2.68c0.021-1.493,1.227-2.699,2.72-2.72h310.92c1.491,0.182,2.553,1.538,2.371,3.029    c-0.151,1.241-1.129,2.219-2.371,2.371H19.28z M319.2,42.6v179.48H30.32V42.6H319.2z M170.76,302.12l-26.56-0.2l26.56-46.24    V302.12z M205.44,302.4l-26.68-0.2v-46.52L205.44,302.4z M332.571,233.469c-0.151,1.241-1.129,2.219-2.371,2.371h-0.12H19.28    c-1.491-0.182-2.553-1.538-2.371-3.029c0.151-1.241,1.129-2.219,2.371-2.371H330.2    C331.691,230.622,332.753,231.978,332.571,233.469z" style="fill: rgb(111, 111, 111);"></path>
	</g>
</g>
<g>
	<g>
		<path d="M104.24,98.6L104.24,98.6H79c-2.209,0-4,1.791-4,4v92c0,2.209,1.791,4,4,4h25.24c2.209,0,4-1.791,4-4v-92    C108.24,100.391,106.449,98.6,104.24,98.6z M83.16,190.6v-83.8h16.92l0.16,83.8H83.16z" style="fill: rgb(111, 111, 111);"></path>
	</g>
</g>
<g>
	<g>
		<path d="M145.963,131.163c-0.054-0.002-0.109-0.003-0.163-0.003h-25.24c-2.209,0-4,1.791-4,4v59.44c0,2.209,1.791,4,4,4h25.24    c2.209,0,4-1.791,4-4v-59.28C149.888,133.113,148.171,131.252,145.963,131.163z M141.64,190.6h-16.92v-51.12h16.92V190.6z" style="fill: rgb(111, 111, 111);"></path>
	</g>
</g>
<g>
	<g>
		<path d="M187.563,79.203c-0.054-0.002-0.109-0.003-0.163-0.003h-25.24c-2.209,0-4,1.791-4,4v111.4c0,2.209,1.791,4,4,4h25.24    c2.209,0,4-1.791,4-4V83.36C191.488,81.153,189.771,79.292,187.563,79.203z M183.2,190.6h-16.88V87.52h16.92L183.2,190.6z" style="fill: rgb(111, 111, 111);"></path>
	</g>
</g>
<g>
	<g>
		<path d="M229.123,160.123c-0.054-0.002-0.109-0.003-0.163-0.003h-25.24c-2.209,0-4,1.791-4,4v30.48c0,2.209,1.791,4,4,4h25.24    c2.209,0,4-1.791,4-4v-30.32C233.048,162.073,231.331,160.212,229.123,160.123z M207.88,190.56v-22.12h16.92l0.16,22.12H207.88z" style="fill: rgb(111, 111, 111);"></path>
	</g>
</g>
<g>
	<g>
		<path d="M270.683,65.843c-0.054-0.002-0.109-0.003-0.163-0.003h-25.24c-2.209,0-4,1.791-4,4V194.6c0,2.209,1.791,4,4,4h25.24    c2.209,0,4-1.791,4-4V70C274.608,67.793,272.891,65.932,270.683,65.843z M266.36,190.6h-16.92V74.16h16.92V190.6z" style="fill: rgb(111, 111, 111);"></path>
	</g>
</g>
<g>
</g>
<g>
</g>
<g>
</g>
<g>
</g>
<g>
</g>
<g>
</g>
<g>
</g>
<g>
</g>
<g>
</g>
<g>
</g>
<g>
</g>
<g>
</g>
<g>
</g>
<g>
</g>
<g>
</g>
</svg>